<svg xmlns="http://www.w3.org/2000/svg" xmlns:xlink="http://www.w3.org/1999/xlink" xmlns:inkscape="http://www.inkscape.org/namespaces/inkscape" version="1.1" width="566.929" height="283.465" viewBox="0 0 566.929 283.465">
<defs>
<clipPath id="clip_1">
<path transform="matrix(1,0,0,-1,0,283.465)" d="M0 0H566.929V283.465H0Z"/>
</clipPath>
<clipPath id="clip_2">
<path transform="matrix(1,0,0,-1,0,283.465)" d="M-23.804-62.6189H572.931V337.979H-23.804Z"/>
</clipPath>
<clipPath id="clip_3">
<path transform="matrix(1,0,0,-1,0,283.465)" d="M0 283.465H566.929V0H0Z"/>
</clipPath>
<clipPath id="clip_4">
<path transform="matrix(1,0,0,-1,0,283.465)" d="M190.847 75.831H376.082V207.634H190.847Z"/>
</clipPath>
</defs>
<g>
<path transform="matrix(1,0,0,-1,0,283.465)" d="M0 0H566.929V283.465H0Z" fill="#d7bf9e"/>
<g clip-path="url(#clip_1)">
<g opacity=".300003">
<g clip-path="url(#clip_2)">
<path transform="matrix(1,0,0,-1,.1611,-54.1391)" stroke-width=".75" stroke-linecap="butt" stroke-miterlimit="10" stroke-linejoin="miter" fill="none" stroke="#5a352c" d="M0 0H-8.902C-2.417-10.087 2.882-22.862 4.151-28.195 8.059-44.617-8.587-49.709-23.59-54.038V-61.677C-22.977-61.499-17.482-60.322-15.168-59.719 27.738-48.534 8.268-16.817 0 0Z"/>
<path transform="matrix(1,0,0,-1,32.4014,12.64621)" stroke-width=".75" stroke-linecap="butt" stroke-miterlimit="10" stroke-linejoin="miter" fill="none" stroke="#5a352c" d="M0 0C1.481 3.022 1.306 2.111 6.891 25.809 8.547 32.835 4.877 51.441 6.928 66.785H-4.644C1.772 40.495 4.892 31.981 2.728 20.442-1.902-4.243-27.829-6.161-51.933-11.999-53.234-12.314-54.526-12.532-55.83-12.533V-21.428C-35.451-7.027-9.218-18.81 0 0Z"/>
<path transform="matrix(1,0,0,-1,25.0865,-54.1391)" stroke-width=".75" stroke-linecap="butt" stroke-miterlimit="10" stroke-linejoin="miter" fill="none" stroke="#5a352c" d="M0 0H-5.341C-3.954-2.094-4.19-4.593-3.766-6.898-.21-26.204 6.052-58.042-13.124-61.899-32.613-65.819-31.227-69.554-38.498-67.693-38.215-67.126-38.083-66.494-37.855-66.457-29.853-65.145-22.765-61.205-15.233-58.553-7.504-55.832-4.128-51.645-2.728-45.851-.459-36.462-4.57-20.943-8.663-12.523-10.619-8.499-11.409-4.402-10.682 0H-21.365C-16.348-8.914-9.84-21.877-9.612-31.913-9.16-51.851-30.478-63.008-48.516-64.662V-76.297C-44.392-75.281-28.522-73.937-11.609-66.869 22.361-52.673 .794-18.756 0 0Z"/>
<path transform="matrix(1,0,0,-1,79.1782,46.225999)" stroke-width=".75" stroke-linecap="butt" stroke-miterlimit="10" stroke-linejoin="miter" fill="none" stroke="#5a352c" d="M0 0C9.596 4.442 20.404-2.104 51.9-22.368 49.94-23.287 12.649-8.425 12.502-8.366 7.776-6.496 1.946-3.65-6.017-10.553-10.95-14.829-13.358-21.698-15.81-28.317-33.573-76.275-38.352-71.683-63.417-70.213L-63.327-69.413C-43.441-67.026-34.645-69.373-26.46-49.017-17.547-26.847-14.833-6.867 0 0ZM58.522-32.172C59.546-35.357 49.745-31.438 35.318-40.099-3.896-63.641-8.43-91.12-35.501-89.64-44.733-89.135-53.454-87.255-66.09-89.395-83.735-92.384-96.05-118.423-97.683-119.359-98.581-115.266-89.911-102.621-79.655-92.581-63.218-76.492-37.469-93.731-25.434-84.279-4.941-68.185 20.378-28.495 58.522-32.172ZM-97.979-120.21C-98.469-119.747-98.076-119.686-97.8-119.571L-97.979-120.21ZM-86.307-44.727C-86.888-40.646-88.266-21.89-86.252-20.04-84.444-39.253-84.371-45.628-77.464-45.497-57.571-45.118-48.567-33.215-46.17-32.859-52.907-47.251-83.983-61.055-86.307-44.727ZM-52.292-102.385C-23.827-98.792-3.883-111.369 15.658-92.832 32.761-76.609 34.006-52.695 59.521-57.102 63.474-57.785 70.081-59.587 74.825-59.856 87.851-60.592 96.804-47.261 91.164-33.792 85.116-19.348 75.427-14.169 24.186 24.523-10.372 50.617-17.42 20.049-49.55 6.275-55.004 3.937-59.607 1.652-62.106-1.858-66.876-8.554-61.124-14.919-52.587-15.606-42.111-16.449-28.944-6.145-23.516-6.608-24.927-8.01-23.375-6.906-42.666-19.018-50.215-23.759-60.992-27.508-69.688-25.586-83.464-22.541-77.154 2.52-63.285 7.492-52.485 11.365-44.405 11.598-32.662 24.418-10.18 48.963-10.053 73.862-6.021 100.365H-16.704C-20.261 61.779-23.301 17.819-58.32 12.632-85.618 8.588-89.989 8.477-92.677-11.95-94.259-23.97-94.665-40.801-90.885-51.785-84.924-69.108-50.724-44.918-42.718-41.027-47.146-47.765-87.451-74.33-94.09-52.271-98.134-38.834-97.376-20.815-95.113-6.637-89.492 28.555-48.662-.151-32.078 36.118-23.829 54.157-21.49 83.445-20.264 100.365H-36.288C-33.923 72.511-32.488 67.888-36.7 57.983-41.813 45.958-40.028 47.775-41.474 36.821-44.655 12.734-69.285 26.402-102.607 8.631V-61.522C-99.534-65.622-97.505-71.781-96.526-79.929-94.231-81.01-85.197-65.912-61.998-60.165-47.733-56.631-37.215-54.046-29.053-39.269-21.731-26.015-23.366-22.864-21.134-20.569-20.561-25.369-24.361-36.915-27.381-42.49-35.344-57.189-45.618-59.375-60.472-63.027-84.16-68.85-95.028-86.693-102.607-89.149V-102.476C-96.118-94.33-93.693-90.531-86.04-83.842-64.855-65.325-44.33-89.312-26.055-67.658-15.673-55.355-16.363-35.081-3.353-24.272 5.305-17.079 11.209-19.526 23.834-21.254 23.45-22.741 23.135-21.799 13.296-23.144-15.629-27.095-5.798-59.354-23.745-75.824-47.737-97.843-60.15-60.364-91.618-94.042-91.807-94.245-102.507-107.469-102.607-107.593V-140.759C-93.014-124.997-90.605-119.07-84.218-110.383-66.821-86.719-33.046-94.78-13.98-90.288 8.042-85.099 14.935-68.469 30.141-55.03 41.963-44.58 49.829-52.423 65.039-42.06 68.482-39.713 71.716-36.795 69.668-33.157 60.459-16.802 30.158 2.858 11.606 9.28-14.117 18.183-28.701-7.809-45.718-11.92-54.255-13.982-65.341-6.82-55.469-.415-50.196 3.006-41.483 4.18-25.525 17.757-8.514 32.23 2.607 36.078 23.748 19.737 61.217-9.227 67.378-10.172 79.413-22.543 96.87-40.489 90.2-54.224 79.292-56.351 66.55-58.836 52.099-48.236 37.645-59.777 23.097-71.391 21.569-91.767 1.766-97.272-19.702-103.241-42.268-95.289-62.676-102.077-91.44-111.646-86.084-147.617-102.607-162.87V-166.371C-81.197-147.628-90.335-107.187-52.292-102.385Z"/>
<path transform="matrix(1,0,0,-1,420.9847,286.4104)" stroke-width=".75" stroke-linecap="butt" stroke-miterlimit="10" stroke-linejoin="miter" fill="none" stroke="#5a352c" d="M0 0C-19.915-1.591-27.027-19.652-35.696-25.213-47.447-32.753-54.814-15.74-72.907 13.92-73.64 15.123-74.741 16.236-74.51 17.847-73.134 17.396-72.634 16.081-71.924 15.033-48.602-19.364-45.301-27.992-38.231-22.28-28.045-14.052-15.588 4.851 1.705 .422 1.137 .277 .576 .046 0 0ZM-75.147 18.281-74.745 18.616-74.611 18.012-75.147 18.281ZM28.7-34.296C23.519-25.142 27.199-17.854 16.276 2.72 11.861 11.035 7.261 18.199-4.821 20.828-68.192 34.614-57.326 38.986-93.761 58.308-104.771 64.148-120.379 66.895-132.137 63.29-147.109 58.7-149.338 40.192-141.452 33.789-127.491 22.454-105.566 19.699-93.277 1.321-78.308-21.065-74.794-57.032-76.414-59.298H-64.007C-63.959-59.269-63.913-59.239-63.862-59.211-64.865-56.661-66.857-54.902-67.674-52.19-66.104-52.183-65.953-52.914-61.999-55.63-58.165-58.263-57.71-58.229-56.703-59.298H1.641C-3.624-49.654 6.879-29.46 6.176-24.428 5.811-21.808 2.144-19.178-1.521-25.006-12.338-42.213-13.45-53.966-45.49-53.697-50.106-53.658-52.88-51.395-60.454-46.36-83.494-31.043-78.776 3.654-108.303 21.024-116.181 25.658-118.28 24.374-124.279 27.632-126.91 29.061-135.555 33.862-140.029 37.637-147.161 43.654-141.349 55.897-132.269 59.711-111.523 68.427-87.882 52.308-70.124 40.631-25.147 11.058 7.559 31.795 19.204-9.344 15.594-5.876 18.766-9.305 13.277-2.195 7.536 5.24-2.589 6.603-9.687 4.677-30.108-.866-39.165-5.301-56.197 10.475-66.71 20.214-76.767 31.936-100.215 43.345-106.745 46.522-113.228 49.168-120.068 49.07-123.295 49.024-124.705 45.074-122.102 42.929-105.685 29.4-96.727 31.039-79.121-1.558-68.664-20.918-74.235-34.681-54.12-47.811-49.565-50.784-44.424-51.416-39.195-51.359-4.971-50.985-8.271-12.732 5.306-19.372 15.445-24.331-.217-40.046 3.744-57.306 3.867-57.842 3.958-58.861 3.687-59.298H17.016C16.896-59.102 16.786-58.853 16.663-58.533 10.158-41.629 13.236-37.248 14.534-23.508 15.555-12.689 4.764-2.07-4.666-9.633-11.705-15.28-20.047-32.18-29.52-39.213-38.492-45.874-49.537-41.697-55.745-33.751-70.925-14.322-67.616-3.717-84.133 18.562-85.572 20.501-87.343 22.373-87.775 24.939-86.118 24.487-85.288 23.053-84.314 21.84-67.831 1.315-65.583-20.563-49.199-34.081-43.729-38.593-39.527-40.955-33.965-38.234-21.9-32.332-16.282-12.852-8.349-6.81-1.706-1.75 9.001-3.588 13.069-8.971 19.358-17.295 18.044-23.216 16.101-33.645 14.205-43.824 16.646-49.489 19.609-59.298H42.513C42.178-58.742 41.868-58.231 41.644-57.689 37.794-48.349 33.727-43.179 28.7-34.296Z"/>
<path transform="matrix(1,0,0,-1,219.0843,249.60309)" stroke-width=".75" stroke-linecap="butt" stroke-miterlimit="10" stroke-linejoin="miter" fill="none" stroke="#5a352c" d="M0 0C7.032-28.039 50.787-61.674 50.925-61.806 59.972-70.456 62.703-84.175 57.756-96.106H67.961C68.289-93.933 71.624-92.393 74.729-84.992 85.239-59.945 25.166-50.221 0 0Z"/>
<path transform="matrix(1,0,0,-1,166.5547,234.38559)" stroke-width=".75" stroke-linecap="butt" stroke-miterlimit="10" stroke-linejoin="miter" fill="none" stroke="#5a352c" d="M0 0C-11.085 4.36-18.059 10.231-27.743 15.947-37.48 21.693-49.298 21.647-53.81 19.462-59.415 16.748-50.594 9.962-43.783 10.109-41.486 10.158-33.755 12.33-25.691 7.437-1.235-7.399 9.567-20.445 18.124-34.743 21.685-40.692 21.311-43.155 24.236-68.771 26.166-85.681 27.635-95.872 24.115-111.323H33.852C43.205-80.391 29.079-11.437 0 0Z"/>
<path transform="matrix(1,0,0,-1,142.4739,248.1068)" stroke-width=".75" stroke-linecap="butt" stroke-miterlimit="10" stroke-linejoin="miter" fill="none" stroke="#5a352c" d="M0 0C-15.979 2.16-13.972-18.376-18.17-34.677-23.474-55.277-54.44-51.265-66.649-55.459-86.048-62.122-83.51-78.739-82.396-97.602H-79.601C-79.869-97.381-79.951-97.073-79.994-96.771-82.545-78.567-82.684-66.106-70.294-58.849-61.796-53.873-53.81-54.483-37.843-52.334-11.836-48.834-16.136-32.269-10.022-9.829-7.214 .474 2.701-2.151 10.21-10.097 28.563-29.516 32.928-52.242 29.949-78.392 28.892-87.67 28.106-91.919 24.229-97.602H28.866C28.852-97.149 38.727-74.215 33.842-47.766 30.864-31.637 15.184-2.052 0 0Z"/>
<path transform="matrix(1,0,0,-1,197.8605,269.5595)" stroke-width=".75" stroke-linecap="butt" stroke-miterlimit="10" stroke-linejoin="miter" fill="none" stroke="#5a352c" d="M0 0C1.615-9.798 15.273-47.292 6.449-75.172 6.32-75.579 6.191-75.899 6.046-76.149H20.425C23.203-73.482 32.237-53.384 14.662-23.593 14.448-23.231 1.316-1.008 0 0Z"/>
<path transform="matrix(1,0,0,-1,559.4405,171.2384)" stroke-width=".75" stroke-linecap="butt" stroke-miterlimit="10" stroke-linejoin="miter" fill="none" stroke="#5a352c" d="M0 0C-2.35-11.503-1.741-18.47-10.261-28.481-26.092-47.083-65.603-66.274-81.71-79.772-88.78-85.698-96.989-85.716-98.061-85.978-105.612-87.827-114.132-84.02-120.457-79.487-129.516-72.993-137.634-72.054-152.702-68.861-161.672-66.961-166.644-62.834-173.538-57.404-214.329-25.277-205.405-32.773-218.841-12.228-243.517 25.505-308.557 4.525-320.518-55.917-330.013-103.89-273.362-108.387-254.699-129.75-244.656-141.248-238.009-159.315-248.96-170.794L-252.469-174.47H-242.9C-236.324-166.804-233.482-167.681-234.767-154.597-236.343-138.539-244.906-134.006-244.977-129.522-242.752-130.691-219.522-159.645-239.689-174.47H-221.6C-222.343-173.106-222.062-171.896-221.89-170.72-220.732-171.673-220.65-172.856-220.794-174.47H-216.639C-218.072-173.267-220.533-151.737-232.591-131.783-254.493-95.538-290.823-108.943-304.995-73.245-315.253-47.404-270.854-8.634-244.74-17.934-230.776-22.908-218.347-33.187-208.11-44.101-184.018-69.787-189.659-69.351-146.799-79.26-119.422-85.591-120.728-90.417-106.007-112.505-101.859-118.728-99.654-121.789-94.339-121.35-81.088-120.255-82.707-106.514-71.454-84.649-69.494-80.842-63.24-72.284-59.994-72.36-70.627-90.54-65.993-70.686-79.796-143.608-83.14-161.276-82.427-164.616-80.45-174.47H-77.727C-79.054-168.67-80.476-163.582-79.157-155.56-68.69-91.895-66.711-84.823-55.889-75.028-25.275-47.32-14.755-63.634 11.779-20.287 12.151-19.679 12.666-19.159 13.115-18.598V18.936C7.307 13.929 2.101 10.286 0 0Z"/>
<path transform="matrix(1,0,0,-1,566.4747,9.724609)" stroke-width=".75" stroke-linecap="butt" stroke-miterlimit="10" stroke-linejoin="miter" fill="none" stroke="#5a352c" d="M0 0C.759 .284 1.634 .257 2.463 .355 1.919-1.383-23.057-11.548-25.831-12.032-23.547-8-13.371-4.995 0 0ZM-46.971-68.921C-42.496-75.416-41.945-86.954-48.514-94.816-50.891-97.66-53.597-100.226-56.152-102.919-73.849-121.57-72.63-122.105-73.279-145.908-74.131-144.944-74.68-144.603-74.796-144.151-81.661-117.379-64.831-108.5-52.265-94.236-28.702-67.492-89.058-47.949-67.925-23.599-64.011-19.091-55.789-14.187-44.909-12.207L-44.512-13.04C-87.718-34.38-66.149-41.086-46.971-68.921ZM-50.755-20.065-48.558-18.412C-48.884-19.495-49.69-19.95-50.755-20.065ZM-58.953-46.678C-59.601-46.421-59.637-45.859-59.645-45.282L-58.953-46.678ZM-59.787-44.878C-61.052-44.203-61.209-42.86-61.453-41.673-63.828-30.141-54.68-20.461-51.03-20.182-57.472-29.532-62.745-28.165-59.787-44.878ZM-152.519-193.674C-157.202-191.53-152.679-193.753-171.576-181.472-183.058-174.011-177.127-165.847-195.096-152.48-198.943-149.619-207.465-144.845-209.862-143.378-219.648-137.389-216.891-132.871-229.413-124.148-232.278-122.152-241.288-116.116-242.133-114.151-235.25-116.407-221.289-128.013-214.896-134.794-199.302-151.335-190.355-145.696-177.091-171.26-170.831-183.325-163.421-180.839-152.292-193.442L-151.807-194.177-152.519-193.674ZM-237.681-106.994C-220.894-110.276-195.954-121.422-192.568-138.253-195.195-136.366-196.698-128.274-213.282-118.52-223.953-112.244-233.997-109.831-237.852-107.519L-237.681-106.994ZM-155.635-155.856C-164.164-140.728-163.527-144.423-164.636-140.899-157.171-145.634-150.681-165.075-141.847-172.737-135.573-178.178-130.496-178.222-124.659-178.669-141.784-182.081-148.45-168.602-155.635-155.856ZM-203.061-97.103-202.767-97.379C-202.963-97.317-203.044-97.388-203.061-97.103ZM-205.17-96.469C-237.281-76.704-226.315-75.115-241.24-43.14-241.716-42.12-241.913-40.97-242.229-39.875-238.705-40.444-230.078-63.043-228.906-66.427-222.098-86.081-208.787-90.823-203.255-96.903-203.915-96.794-204.642-96.795-205.17-96.469ZM-242.974-38.24-242.388-39.715C-242.986-39.381-243.008-38.821-242.974-38.24ZM-528.003-291.695C-534.909-286.974-535.353-282.406-532.043-278.534-525.784-271.211-501.883-270.908-486.529-263.281-467.905-254.029-464.931-233.228-471.42-215.974-471.88-214.751-472.289-213.509-473.012-211.446-471.986-212.091-471.66-212.191-471.5-212.413-458.715-230.012-463.302-250.845-476.584-263.358-489.676-275.693-521.949-273.334-529.031-280.501-531.99-283.496-529.875-286.395-526.34-288.676-518.352-293.828-515.753-303.631-515.135-313.142-516.545-313.519-516.264-312.603-518.43-306.821-520.847-300.368-522.326-295.574-528.003-291.695ZM-457.823-265.43C-455.307-255.697-459.565-227.855-435.465-223.227-431.739-222.512-425.838-223.156-425.602-226.647-468.891-226.647-440.729-268.851-464.81-277.454-476.316-281.564-484.542-281.529-500.782-282.236-502.966-282.331-505.124-283.055-508.057-282.688-502.938-279.08-495.85-278.878-479.198-276.447-469.608-275.047-460.206-274.647-457.823-265.43ZM-333.732 28.692C-331.825 28.965-329.925 29.364-328.008 29.474-320.534 29.901-315.551 24.777-316.201 17.268-316.566 13.06-318.779 6.814-321.044 .128-330.903-28.969-319.36-41.561-339.161-47.946-346.145-50.199-345.241-52.577-343.213-66.849-342.986-68.452-342.572-70.028-342.86-71.638-343.877-71.799-343.855-71.069-343.987-70.603-348.121-56.018-353.451-44.563-337.443-43.115-324.85-41.977-333.142-26.129-324.727-.398-321.053 10.834-314.66 25.341-326.75 26.054-332.545 26.396-345.544 21.608-355.341 23.755-360.118 24.802-364.853 26.04-369.599 27.221-369.844 27.281-370.034 27.562-370.534 27.976-365.05 28.771-352.014 26.074-333.732 28.692ZM-364.768-127.603C-376.205-131.376-395.518-131.792-405.946-139.372-416.062-146.726-406.487-152.631-399.637-162.898-395.298-169.401-398.12-177.624-405.529-180.306-410.28-182.027-414.706-180.475-424.067-180.271-434.73-180.039-442.537-184.296-455.346-183.882-465.622-183.55-476.118-179.359-480.931-175.55L-480.657-175.046C-459.269-181.666-452.871-181.595-436.288-178.254-421.24-175.222-412.842-178.768-407.534-177.403-402.419-176.087-399.021-170.074-401.623-166.05-407.509-156.947-418.623-148.423-411.58-140.022-393.976-119.025-348.508-139.356-346.643-94.166-345.387-63.725-367.059-48.471-356.672-37.879-352.512-33.638-345.51-31.859-339.641-31.01-335.137-30.358-334.071-34.502-337.14-36.793-340.539-39.331-344.371-39.727-347.431-40.644-352.418-42.14-355.409-47.646-353.833-52.609-353.161-54.726-352.19-56.753-351.272-58.783-339.853-84.036-338.763-119.023-364.768-127.603ZM-392.698-159.008C-385.911-168.597-383.862-178.83-387.619-191.689-389.064-196.634-394.077-199.829-399.357-199.333-409.631-198.369-413.346-192.113-431.42-189.201-434.082-188.772-441.605-187.649-443.748-186.526-442.554-183.429-423.462-186.935-420.222-187.607-411.733-189.366-408.435-190.661-401.382-188.754-392.236-186.281-391.005-172.909-395.701-164.333-398.256-159.668-402.511-155.373-403.633-151.488-405.102-146.399-402.021-145.117-394.505-143.51-375.106-139.362-376.673-140.024-374.275-140.032-388.776-148.875-401.863-146.058-392.698-159.008ZM-334.762 7.506C-335.683 15.035-340.974 9.693-352.209 14.864-353.621 15.513-355.229 15.977-356.466 17.994-342.383 15.087-341.708 17.477-336.261 17.532-326.022 17.636-331.287 2.812-334.029-11.355-335.714-12.15-333.741-.843-334.762 7.506ZM-349.115-7.335C-351.217-.229-353.598 2.957-356.87 8.492-339.353-2.062-348.775-9.709-340.776-21.959-340.556-22.297-340.524-22.759-340.209-23.828-344.883-22.019-347.689-12.155-349.115-7.335ZM-1.931 63.864C-4.223 50.169-5.939 38.29-10.535 25.192-24.464-14.503-62.168-5.306-77.803-20.267-93.599-35.382-67.136-53.956-64.514-78.176-63.949-83.394-64.669-92.226-67.694-96.507-67.072-91.04-66.27-86.971-69.165-80.201-83.027-47.782-90.242-44.369-93.288-32.597-95.696-23.293-90.659-14.113-79.669-11.015-44.143-1.002-13.053-11.372-5.492 63.864H-13.503C-15.788-7.486-55.694 10.202-82.742-6.127-98.279-15.507-101.578-36.292-92.024-52.198-82.956-67.293-73.778-76.295-76.521-98.674-76.935-102.05-78.447-111.446-80.699-113.988-81.249-106.059-70.364-93.996-88.851-71.634-94.583-64.701-99.011-60.283-102.281-52.832-109.066-37.372-106.058-19.454-91.585-7.751-77.621 3.541-59.416 4.439-43.651 13.013-26.521 22.329-20.234 43.333-23.1 61.645-23.214 62.377-23.233 63.124-23.296 63.864H-27.747C-25.587-7.741-96.919 20.878-110.872-13.348-112.985-18.533-111.918-16.462-113.366-18.622-114.847-13.534-111.369 2.174-106.173 8.401-106.867 4.483-108.422 1.598-107.613-1.679-107.127-1.492-106.649-1.437-106.351-1.175-84.287 18.202-33.772 .79-35.758 63.864H-48.221C-48.082 51.412-48.739 40.216-60.132 31.491-65.886 27.084-86.747 15.409-91.853 16.173-80.559 25.964-53.445 29.808-51.92 54.138-51.716 57.398-51.677 60.68-52.672 63.864H-64.245C-63.581 58.807-63.602 54.505-65.954 50.315-67.862 50.235-67.326 53.4-66.025 63.864H-68.695C-64.441 41.709-111.03 30.911-117.424-4.242-125.962-51.182-89.642-64.855-86.014-94.637-85.385-99.803-87.207-111.039-88.359-115.834-91.358-128.322-97.55-133.844-105.684-135.894-122.717-140.186-128.76-136.6-197.592-95.21-234.629-72.939-217.972-63.049-236.625-36.317-245.267-23.931-252.709-12.952-249.841 6.688-247.093 25.498-236.895 45.78-247.406 58.456-249.351 60.801-252.543 57.825-251.612 53.524-250.204 47.024-247.175 41.226-249.874 30.279-254.345 12.145-257.184 4.082-258.601-7.501-261.078-27.75-250.06-29.542-242.768-50.965-239.922-59.326-240.577-59.028-240.577-61.105-245.504-54.392-251.927-42.256-267.606-32.277-277.222-26.156-281.525-12.555-271.981 4.369-266.281 14.476-256.862 23.403-266.709 52.064L-270.769 63.864H-273.44C-264.157 36.225-260.32 33.731-272.164 7.098-280.296-11.187-286.353-18.354-270.046-32.376-255.256-45.096-253.122-44.589-245.59-61.666-245.383-62.135-245.448-62.725-245.312-63.914-251.177-59.232-258.794-50.633-276.057-42.709-293.734-34.596-300.238-26.264-293.564-5.726-287.027 14.387-272.061 27.885-276.704 48.086-278.85 57.423-284.461 60.232-289.464 63.864H-308.158C-311.064 61.907-343.442 48.438-357.756 44.74-394.025 35.37-416.999 56.033-419.864 47.421-418.782 41.588-397.387 40.212-385.638 19.026-377.426 4.22-378.692-1.655-360.02-13.524-359.04-14.147-357.672-14.777-356.714-14.226-350.252-10.517-373.652 16.715-373.907 19.019-366.321 14.055-353.609-3.054-348.501-23.604-348.867-23.753-349.028-23.884-349.124-23.847-354.966-21.592-361.257-21.112-367.202-19.38-391.384-12.337-381.802 16.326-413.16 28.921-428.808 35.207-448.409 41.92-443.778 59.145-443.357 60.712-442.976 62.29-442.577 63.864H-445.247C-446.852 57.146-449.194 49.623-441.433 40.94-429.072 27.11-406.555 31.417-395.902 9.002-390.688-1.969-389.805-10.42-377.288-18.453-370.748-22.65-364.559-24.973-356.151-28.884-358.257-30.487-374.158-25.817-376.66-24.959-406.216-14.821-403.751 9.519-428.48 23.374-441.686 30.773-459.256 38.196-456.82 63.864H-462.161C-462.171 55.982-462.741 50.383-458.037 42.297-435.834 4.123-383.443-32.304-365.671-49.276-353.181-61.203-351.609-75.102-352.561-92.525-353.391-107.735-363.921-121.841-382.758-123.038-398.031-124.008-407.43-122.515-418.395-131.337-426.235-137.645-424.972-140.302-424.716-153.601-424.537-162.909-431.869-173.643-447-176.561-464.205-179.88-481.538-171.535-483.022-167.842-480.023-165.863-470.84-175.319-451.546-173.758-444.835-173.215-437.534-170.449-432.869-165.384-429.307-161.518-427.312-157.687-428.455-146.085-430-130.408-413.153-121.118-399.107-120.145-396.223-119.945-386.827-120.079-380.017-119.075-349.327-114.552-349.845-70.05-366.757-53.106-379.404-40.436-390.738-35.281-439.417 11.326-458.748 29.835-471.321 27.114-483.059 45.117-487.591 52.066-482.702 56.368-479.075 63.864H-481.745C-483.023 60.6-482.5 61.672-483.925 59.949-484.911 61.333-484.044 62.687-484.416 63.864H-489.757C-493.264 34.36-493.158 37.463-498.192 16.648-492.63 17.348-470.785 26.384-453.284 12.566-435.794-1.244-412.051-33.39-391.924-47.579-383.545-53.485-376.28-58.904-371.747-66.194-357.019-89.88-380.708-115.732-407.029-109.14-411.946-107.909-420.833-103.723-422.766-103.043-433.062-99.421-442.324-104.608-447.716-113.389-458.958-131.698-463.841-150.733-502.914-147.68-536.575-145.048-559.045-147.703-568.814-179.841-573.341-194.736-576.65-214.976-589.904-224.997V-228.486C-556.658-198.148-577.943-161.462-536.439-151.446-509.325-144.902-481.108-158.532-462.163-140.465-446.64-125.663-444.679-91.866-412.128-109.471-412.177-110.793-411.771-110.102-426.186-117.664-442.675-126.313-435.969-132.343-444.913-153.668-448.988-163.385-460.02-166.018-470.333-164.678-488.12-162.368-493.289-155.642-520.266-158.385-540.902-160.483-552.166-162.245-555.433-189.132-559.248-220.525-559.702-230.284-589.904-245.307V-249.616C-589.214-249.682-573.837-242.492-562.185-230.623-544.262-212.367-553.866-172.356-534.494-168.627-538.239-173.029-542.27-173.383-543.957-179.638-550.203-202.805-545.573-221.815-563.698-236.739-571.855-243.457-563.229-238.509-555.142-232.412-536.801-218.585-549.4-183.041-533.955-173.932-532.555-176.044-539.608-188.624-539.66-202.311-539.704-213.857-538.607-222.807-549.527-233.45-563.452-247.023-585.635-253.051-589.904-255.068V-258.16L-585.799-256.926C-585.799-258.229-585.211-257.453-589.904-261.542V-271.226C-583-256.324-562.106-243.087-557.566-243.746-568.081-249.874-578.646-256.969-584.847-268.386-588.216-274.588-590.082-280.846-588.666-287.629-584.896-305.685-574.774-307.254-576.793-310.226-577.87-311.812-578.803-311.714-589.904-310.43V-317.275C-586.007-316.948-578.107-319.4-572.352-317.748-567.154-316.255-565.218-312.048-570.49-304.534-574.526-298.782-584.741-290.497-579.186-272.317-570.684-244.493-536.974-245.21-527.834-241.937-514.665-237.222-513.105-221.906-520.296-212.345-531.632-197.273-539.121-190.716-530.334-176.031-535.958-207.835-506.188-205.77-513.619-232.091-519.94-254.479-549.058-242.25-566.37-258.549-575.526-267.17-577.449-279.129-575.204-289.74-572.275-303.584-556.274-297.681-547.551-307.656-535.337-321.622-536.354-326.703-534.769-335.984H-534.161C-532.095-335.41-534.677-326.59-535.683-324.033-538.73-316.282-542.567-310.482-546.651-303.797-541.882-302.995-535.549-307.176-532.313-310.784-522.648-321.561-528.957-333.612-528.065-335.984H-525.515C-525.684-335.313-524.495-328.344-524.355-325.468-523.833-314.674-530.851-305.674-539.533-302.464-553.243-297.394-571.845-300.551-570.248-281.06-569.247-268.845-559.414-260.753-547.18-258.585-538.857-257.11-530.356-258.674-522.77-257.797-505.329-255.781-488.912-239.826-496.358-222.358-501.943-209.255-516.789-204.669-524.19-192.173-529.636-182.979-525.613-169.673-512.14-168.358-497.498-166.93-491.625-175.211-481.472-181.341-471.284-187.491-464.694-187.374-442.168-188.808-413.564-190.629-397.941-212.981-390.402-202.985-388.119-199.957-380.939-184.583-378.49-172.819-376.373-162.648-379.047-158.118-373.071-149.737-359.662-130.932-343.805-131.395-341.211-91.141-340.189-75.269-340.976-67.272-339.42-61.767-335.458-47.747-324.442-50.916-319.025-48.709-316.659-47.745-314.998-44.703-316.133-42.042-322.468-27.192-325.803-26.189-314.884-1.61-309.796 9.842-308.545 10.624-306.101 20.745-303.793 30.301-308.546 34.948-314.069 35.119-336.14 35.803-356.036 19.902-392.995 38.76-393.852 39.197-394.919 39.45-395.251 40.559-394.265 40.551-393.254 40.667-392.306 40.471-358.756 33.55-333.975 55.995-307.711 60.021-273.748 65.228-272.904 34.614-291.294 7.321-322.809-39.452-292.501-37.822-264.475-55.606-264.83-56.714-265.478-56.253-265.927-56.137-272.731-54.373-303.11-47.266-307.38-38.717-318.831-15.785-302.471-2.005-292.933 20.676-288.574 31.044-292.769 41.635-302.968 46.425-313.8 51.512-334.126 35.835-374.028 35.835-345.309 30.636-329.111 42.835-314.836 40.859-295.342 38.162-299.92 20.314-307.581 2.9-315.918-16.054-320.023-22.591-313.18-39.95-310.652-46.364-314.489-51.564-320.451-52.526-322.061-52.786-323.67-53.054-325.28-53.318-345.188-56.575-331.25-79.231-342.254-116.052-349.372-139.868-375.986-145.673-375.022-167.333-374.215-185.453-383.592-209.043-389.284-215.829-394.184-221.671-399.372-218.259-404.313-212.453-431.702-180.27-460.985-203.261-488.266-181.53-495.979-175.385-501.436-170.821-512.279-172.054-524.602-173.455-526.256-186.957-517.424-195.333-506.374-205.813-481.65-219.773-494.462-243.297-501.183-255.638-515.057-261.588-526.135-261.635-540.448-261.696-544.114-260.87-551.722-263.523-560.315-266.52-566.891-273.826-566.986-282.916-567.202-303.494-534.336-288.288-520.902-311.285-516.887-318.158-517.122-328.135-518.484-335.984H-514.634C-515.118-333.938-515.761-306.899-503.516-295.631-498.16-290.704-492.447-284.819-480.96-284.593-450.938-284.003-445.371-285.239-442.945-255.268-442.812-253.628-442.958-249.772-441.842-245.536-437.909-230.604-412.555-225.937-389.674-263.259-380.073-278.918-380.564-315.702-388.391-335.984H-378.76C-377.801-325.051-376.35-315.748-379.16-289.12-381.341-268.456-378.972-266.316-383.03-260.775-391.937-248.612-407.495-236.232-424.556-223.222-437.48-213.364-440.057-225.565-450.682-220.841-459.029-217.13-460.574-214.984-466.685-210.492-479.511-201.062-482.099-200.913-486.956-195.365-491.8-189.832-502.675-187.853-504.031-190.215-507.344-195.984-491.145-197.695-481.495-213.153-465.419-238.903-492.053-265.01-512.4-267.974-518.266-268.828-524.154-269.553-529.997-270.539-552.777-274.381-549.002-289.083-542.52-291.103-536.397-293.011-527.859-294.04-522.64-302.224-523.441-303.025-523.946-302.527-524.341-302.168-530.581-296.504-537.607-296.079-544.251-293.916-551.763-291.47-553.652-279.222-545.299-272.496-535.864-264.899-515.625-266.378-508.501-263.669-490.351-256.769-480.961-242.16-480.109-231.535-478.456-210.914-501.623-201.302-506.228-196.031-511.64-189.837-504.976-178.889-492.833-186.136-485.961-190.236-481.191-197.791-464.355-197.962-430.134-198.308-436.397-197.592-411.315-214.405-394.221-225.864-394.037-217.263-376.953-241.614-379.502-227.141-383.752-219.297-378.29-197.83-365.734-148.485-328.617-144.854-328.774-112.992-328.87-93.542-330.551-64.301-310.815-56.721-291.572-49.332-257.926-57.619-252.68-64.611-254.732-66.97-266.977-59.98-283.853-63.179-307.591-67.679-310.231-94.97-315.369-118.668-320.038-140.21-335.939-151.273-357.349-179.872-381.069-211.555-372.651-234.797-348.515-270.566-322.847-308.606-317.958-307.4-325.983-335.984H-324.006C-323.616-335.689-323.3-335.258-323.086-334.616-312.955-304.167-328.047-299.86-352.679-259.229-371.836-227.628-376.136-208.691-354.117-179.864-330.317-148.705-316.019-140.36-311.87-114.498-309.993-102.797-307.242-90.766-301.766-79.974-291.965-60.659-265.785-62.832-248.889-71.724-239.714-76.553-229.058-84.328-220.842-90.571-205.96-101.877-197.12-105.659-177.699-117.2-122.457-150.028-110.351-165.242-92.287-159.283-77.02-154.246-87.018-136.13-77.957-113.079-77.734-112.512-77.195-112.07-76.757-111.588-76.866-112.533-76.914-113.494-77.144-114.408-82.621-136.197-73.378-157.754-88.329-162.191-111.755-169.143-112.421-160.667-192.463-112.008-222.297-93.871-260.929-67.417-283.242-95.124-289.092-102.389-291.99-110.049-295.244-118.896-308.027-153.653-340.97-160.957-351.047-200.239-355.137-216.181-352.345-231.773-347.242-240.038-358.472-197.618-338.98-183.475-308.394-149.282-290.357-129.118-283.761-122.471-279.309-110.7-273.073-94.216-251.934-92.701-237.359-97.422-184.801-114.446-179.133-131.52-168.334-157.253-163.002-169.958-149.341-187.997-137.297-192.834-124.465-197.987-105.353-190.019-92.667-183.886-74.832-175.264-72.786-169.709-69.014-154.906-66.899-163.391-73.773-181.911-91.893-190.788-112.018-200.648-132.148-207.054-147.875-192.32-176.381-165.612-165.043-160.876-192.237-123.457-198.255-115.176-227.067-104.461-236.969-101.554-246.043-98.891-255.669-98.572-264.464-101.937-277.012-106.737-270.071-112.359-291.319-136.068-329.737-178.934-372.709-212.287-329.428-259.979-319.355-271.078-307.597-279.6-280.836-298.923-274.851-303.245-272.751-306.864-268.56-314.486-264.801-321.325-269.964-331.479-274.705-335.984H-264.113C-263.986-335.19-260.484-331.863-259.878-331.337-246.74-319.951-256.952-297.881-270.706-287.953-286.962-276.218-327.209-265.826-332.315-232.27-340.782-176.631-255.806-114.894-221.202-174.781-212.617-189.64-204.815-193.103-176.425-217.071-165.38-226.395-156.631-226.661-142.395-230.074-132.568-232.43-129.73-235.704-117.638-241.968-112.684-244.534-108.159-244.026-100.691-242.313-86.449-239.047-90.8-234.42-62.443-218.442-42.648-207.288-14.609-191.892-11.895-169.372-9.704-151.175-5.679-148.605 6.081-138.109V-125.597C-14.019-130.638-16.729-128.172-21.259-159.176-23.156-172.159-30.24-178.494-42.452-188.201-106.047-238.754-116.937-227.048-122.594-228.78-126.608-230.01-130.229-228.336-139.084-224.577-192.711-201.812-183.259-208.297-216.619-168.203-222.8-160.774-229.214-153.526-235.116-145.88-243.584-134.908-259.75-132.792-269.428-136.279-273.567-137.77-275.613-138.927-283.952-142.391-281.178-137.494-275.245-134.102-269.772-132.853-217.866-121.01-218.374-182.537-171.235-205.201-134.541-222.843-124.606-227.047-121.007-225.757-108.87-221.405-99.314-222.452-86.748-215.176-42.925-189.802-43.306-172.927-35.949-148.968-27.696-122.102-12.514-120.971-4.088-113.208 14.482-96.101-19.352-63.517 5.303-32.075 5.453-31.884 5.817-31.862 6.081-31.761V-23.717C-2.276-29.115-13.883-39.309-17.609-45.592-23.339-55.252-8.034-60.51-5.352-71.776-4.647-74.741-3.413-77.626-3.742-80.778-5.131-79.953-5.349-78.426-5.73-77.084-10.352-60.783-28.804-53.616-17.977-41.181-7.417-29.052-3.144-23.242 6.081-20.143V-13.887C-2.631-17.891-7.811-21.063-12.874-21.063-12.025-20.105-11.668-19.408-11.102-19.108-5.608-16.204-.07-13.389 6.081-12.099V-5.844C-2.544-7.329-10.091-13.567-15.814-20.214-28.462-34.904-43.764-34.488-30.713-58.747-22.593-73.841-7.473-81.11-2.612-94.656-.241-101.262-2.212-107.939-7.724-112.232-16.12-118.77-30.033-122.3-35.499-137.944-45.9-167.709-43.652-175.218-68.455-191.049-96.37-208.866-114.311-210.735-122.125-212.779-130.199-214.89-132.074-211.057-143.988-210.467-155.709-209.885-164.491-203.389-172.348-194.638-187.017-178.3-190.489-180.429-204.48-163.207-234.718-125.986-238.174-128.456-257.137-115.412-251.783-114.903-229.259-127.657-210.628-149.93-201.411-160.948-196.409-167.708-185.406-176.927-167.824-191.659-165.572-203.576-141.688-205.638-131.277-206.537-130.459-210.117-121.234-207.853-105.134-203.902-71.471-193.52-59.369-179.462-47.007-165.101-59.125-151.581-57.219-132.514-55.248-112.799-33.399-117.247-27.623-99.309-26.14-94.703-22.133-90.697-25.099-83.153-31.656-66.475-41.999-53.95-49.6-42.873-54.606-35.579-46.484-24.654-38.09-21.925-9.448-12.613-14.322-7.023 6.081-1.375V1.306L2.638 .481C3.436 1.729 4.889 1.711 6.081 2.199V10.243C-16.475 1.835-9.939 2.633-23.012-7.588-23.656-8.091-24.556-8.264-25.23-8.543-26.652-7.386-25.141-6.351-22.194-3.824-12.998 4.065-7.393 9.557 6.081 12.924V20.073C.398 20.072-2.102 22.005-3.357 27.366-4.764 33.379-3.63 32.6 2.034 52.743 2.708 55.14 3.979 57.373 5.046 59.649 5.191 59.957 5.726 60.08 6.081 60.289V63.864H-1.931Z"/>
<path transform="matrix(1,0,0,-1,141.2129,265.7934)" stroke-width=".75" stroke-linecap="butt" stroke-miterlimit="10" stroke-linejoin="miter" fill="none" stroke="#5a352c" d="M0 0C-3.052 2.672-4.619-1.558-5.47-5.533-6.907-12.253-5.754-27.13-23.535-34.152-34.848-38.62-46.537-37.806-58.767-41.282-85.717-48.942-74.906-64.462-77.03-79.916H-75.389C-75.837-79.409-75.887-78.634-75.852-77.949-74.217-46.794-56.573-43.564-25.814-36.975 1.119-31.206 18.985-56.152-17.014-79.916H-10.711C-1.922-72.718 7.038-66.166 5.999-52.48 4.672-34.997-10.5-33.507-11.768-31.843-2.888-18.684-5.945-24.459-.181-9.654 3.827-14.001 12.725-31.511 16.303-48.466 19.671-64.425 14.937-72.486 12.001-79.729 12.059-79.793 12.117-79.854 12.176-79.916H18.789C21.06-74.236 26.123-66.166 23.869-49.993 20.573-26.348 5.524-4.838 0 0Z"/>
<path transform="matrix(1,0,0,-1,549.4728,233.08899)" stroke-width=".75" stroke-linecap="butt" stroke-miterlimit="10" stroke-linejoin="miter" fill="none" stroke="#5a352c" d="M0 0C-18.482-8.508-45.812-19.154-50.587-41.764-57.029-72.272-58.166-73.511-52.102-99.724-50.466-106.796-48.228-109.577-47.058-112.62H-43.283C-47.969-108.482-52.464-88.34-53.483-80.282-54.769-70.112-52.418-62.985-49.124-45.893-46.031-29.846-33.934-19.28-19.284-12.149 8.214 1.236 2.03-5.353 21.341 16.157 21.795 16.663 22.496 16.948 23.083 17.335V21.804C11.715 8.757 8.514 3.92 0 0Z"/>
<path transform="matrix(1,0,0,-1,341.068,5.2156984)" stroke-width=".75" stroke-linecap="butt" stroke-miterlimit="10" stroke-linejoin="miter" fill="none" stroke="#5a352c" d="M0 0C2.01 1.071 1.185-2.385 12.277-9.08 30.502-20.082 54.301-11.268 56.379-31.348 57.378-41.01 52.88-48.495 51.342-60.678 49.51-75.175 54.336-90.528 65.805-98.924 76.323-106.625 98.221-122.156 110.794-125.542 119.176-127.8 122.388-122.422 124.659-123.172 115.735-134.671 100.056-125.029 87.756-117.174 64.078-102.052 40.544-91.157 50.241-50.76 51.636-44.952 53.64-38.934 53.368-32.384 52.418-9.456 10.847-26.296 0 0ZM99.949-99.294C109.91-102.253 115.449-109.156 117.368-119.215 117.444-119.613 117.254-120.062 117.133-120.847 115.236-119.21 116.568-121.122 113.638-115.236 103.064-93.996 75.97-104.194 71.37-95.367 76.616-96.882 78.049-97.842 81.88-97.84 90.001-97.835 94.424-97.653 99.949-99.294ZM122.009-115.547C121.242-115.342 121.147-114.729 121.152-114.056 121.868-114.303 121.905-114.944 122.009-115.547ZM95.228-81.133C82.65-75.233 72.876-69.369 73.957-53.364 74.351-47.52 77.345-34.236 80.134-33.276 81.286-33.603 81.008-34.637 81.081-35.434 85.853-87.292 132.622-75.797 131.637-117.97 131.624-118.542 131.005-119.1 130.354-120.18 127.841-112.963 126.814-108.73 123.669-102.144 116.69-87.532 107.718-86.991 95.228-81.133ZM36.512 23.995C23.154 20.123 40.934 4.42 46.828 8.807 47.959 9.648 48.05 9.853 52.137 13.509 52.752 11.042 49.792 8.519 47.972 7.562 38.314 2.482 20.182 20.308 32.902 25.426 40.39 28.438 43.01 26.567 49.846 31.522 51.155 32.471 52.641 33.183 54.08 33.94 54.399 34.107 54.858 34.004 55.817 34.057 46.407 23.445 44.208 26.225 36.512 23.995ZM-22.511-.073C-24.949-27.36 4.316-23.434 19.585-39.786 36.384-57.777 14.33-72.583 51.76-102.649 64.749-113.082 97.428-135.573 116.881-136.431 127.416-136.895 135.056-125.408 135.953-115.296 140.036-69.231 114.927-79.91 103.866-55.704 93.921-33.942 90.408-12.517 103.449 7.695 121.268 35.315 142.23 31.538 146.029 59.355H143.358C143.879 35.185 113.879 35.481 97.915 2.53 88.163-17.601 93.331-39.366 103.155-59.65 108.268-70.209 113.981-69.733 127.565-85.978 131.869-91.125 131.312-91.072 131.649-92.434 126.044-88.693 121.737-81.308 105.737-73.607 87.78-64.964 73.454-29.163 93.704 13.795 106.977 41.952 123.918 42.089 124.664 59.355H102.41C104.721 39.531 95.382 27.553 89.732 17.24 71.255-16.486 85.161-1.539 71.246-46.283 64.184-68.988 75.578-73.64 79.134-79.094 74.679-78.572 67.986-72.693 66.464-64.268 65.006-56.204 67.667-47.123 70.403-39.014 77.874-16.868 73.185-7.901 80.287 6.016 95.521 35.866 100.291 34.897 99.739 59.355H85.496C87.365 46.921 82.728 38.071 74.072 22.177 64.439 4.491 71.408-6.142 70.221-12.531 69.639-12.115 69.223-11.93 68.964-11.615 62.837-4.151 53.281-6.69 29.07 3.6 18.433 8.12 15.108 27.699 29.161 33.665 34.347 35.868 38.294 35.118 43.867 40.537 55.498 51.846 64.454 70.538 73.022 47.986 71.526 47.856 70.023 51.215 67.234 53.991 63.87 57.338 61.008 54.787 57.352 50.848 42.005 34.313 44.908 35.368 33.343 32.287 19.14 28.503 19.479 13.48 27.848 6.619 35.818 .086 47.387 .539 58.62 .432 59.03 .429 59.442 .701 60.075 .923 62.504 9.147 61.186 9.077 70.474 22.198 82.639 39.382 82.18 55.326 82.825 59.355H50.778C50.709 58.786 50.804 58.125 50.547 57.661 48.882 54.66 43.524 46.312 41.023 45.126 40.838 45.997 40.952 45.781 48.998 59.355H42.766C33.017 40.663 34.718 42.485 21.954 32.194 11.288 23.594 14.814 14.042 14.814 10.504 14.296 10.929 13.824 11.123 13.695 11.451 12.104 15.531 11.37 19.723 12.058 24.115 13.077 30.631 17.023 33.794 23.02 37.256 32.75 42.873 35.2 49.616 40.096 59.355H32.974C29.596 50.761 20.845 44.706 15.618 38.789 6.128 28.05 1.468 10.915 12.473 1.748 24.893-8.598 37.473-8.312 47.714-10.175 56.234-11.726 67.641-17.246 69.034-25.95 71.871-43.672 44.371-66.913 73.892-83.555 91.896-93.705 109.309-85.451 120.825-111.859 121.08-112.443 121.018-113.167 121.063-113.844 111.909-102.339 109.886-95.516 84.82-94.785 76.345-94.538 66.432-86.672 61.183-81.654 47.94-68.995 54.435-52.846 60.799-35.869 64.761-25.297 57.716-16.638 49.948-14.248 36.674-10.164 21.602-13.297 7.838 .141-2.427 10.164 2.082 26.856 10.526 37.541 17.045 45.791 24.781 51.069 29.414 59.355H4.488C7.319 37.746-23.521-.682 13.74-16.4 28.273-22.53 41.632-21.03 42.795-45.949 43.31-56.999 42.266-69.276 45.266-85.07 45.315-85.328 45.157-85.625 44.988-86.386 40.323-74.93 40.491-62.371 39.918-48.058 38.743-18.731 24.023-26.319 6.38-15.729-21.237 .847-1.488 27.107 1.818 59.355H-18.657C-2.383 37.866-21.036 16.434-22.511-.073Z"/>
<path transform="matrix(1,0,0,-1,506.7732,282.9871)" stroke-width=".75" stroke-linecap="butt" stroke-miterlimit="10" stroke-linejoin="miter" fill="none" stroke="#5a352c" d="M0 0C-2.901-10.275-4.02-26.561 2.336-35.458 22.335-63.453 53.625-44.029 65.782-43.583V-37.328C15.959-35.87 43.175 1.488 65.782 11.825V16.293C65.487 16.292 65.174 16.357 64.899 16.28 7.918 .398 23.655-15.665 22.375-31.323 21.712-39.428 16.126-41.663 11.541-38.566 7.038-35.524 1.225-25.744 .661-14.947-.1-.369 10.367 11.37 22.842 16.433 50.728 27.75 50.314 24.966 65.782 39.529V43.104C52.277 31.86 53.235 31.231 30.176 24.159 19.281 20.819 5.164 18.292 0 0Z"/>
<path transform="matrix(1,0,0,-1,519.7825,318.5575)" stroke-width=".75" stroke-linecap="butt" stroke-miterlimit="10" stroke-linejoin="miter" fill="none" stroke="#5a352c" d="M0 0C3.509-3.038 7.209 1.229 6.003 9.416 4.727 18.083 2.665 24.807 9.682 34.526 17.383 45.192 30.445 48.746 52.773 57.226V61.694C18.534 51.1 14.8 51.341 6.458 46.285-16.43 32.414-9.258 8.014 0 0Z"/>
<path transform="matrix(1,0,0,-1,555.9843,290.19599)" stroke-width=".75" stroke-linecap="butt" stroke-miterlimit="10" stroke-linejoin="miter" fill="none" stroke="#5a352c" d="M0 0C-7.214-8.919 .369-27.567 16.571-27.438V13.672C10.057 10.325 4.587 5.671 0 0Z"/>
<path transform="matrix(1,0,0,-1,572.5556,101.362)" stroke-width=".75" stroke-linecap="butt" stroke-miterlimit="10" stroke-linejoin="miter" fill="none" stroke="#5a352c" d="M0 0V55.408C-11.047 39.212-7.614 18.18 0 0Z"/>
<path transform="matrix(1,0,0,-1,197.8321,269.3773)" stroke-width=".75" stroke-linecap="butt" stroke-miterlimit="10" stroke-linejoin="miter" fill="none" stroke="#5a352c" d="M0 0C-.081 .066-.147 .119-.208 .168L-.099-.084 0 0Z"/>
<path transform="matrix(1,0,0,-1,197.3626,268.603)" stroke-width=".75" stroke-linecap="butt" stroke-miterlimit="10" stroke-linejoin="miter" fill="none" stroke="#5a352c" d="M0 0C-.102-.337-.217-.224 .262-.607L0 0Z"/>
<path transform="matrix(1,0,0,-1,189.554,251.5253)" stroke-width=".75" stroke-linecap="butt" stroke-miterlimit="10" stroke-linejoin="miter" fill="none" stroke="#5a352c" d="M0 0 .153-.213 .095 .004 0 0Z"/>
</g>
</g>
</g>
<g clip-path="url(#clip_3)">
<g opacity=".850006">
<g clip-path="url(#clip_4)">
<path transform="matrix(1,0,0,-1,376.0819,141.7327)" d="M0 0C0 36.396-41.466 65.901-92.617 65.901-143.769 65.901-185.235 36.396-185.235 0-185.235-36.396-143.769-65.901-92.617-65.901-41.466-65.901 0-36.396 0 0" fill="#d7bf9e"/>
</g>
</g>
<path transform="matrix(1,0,0,-1,240.3595,145.0296)" d="M0 0C-.28-2.49-3.308-2.262-5.192-2.222-5.448-2.217-5.676-2.06-5.93-2.23-6.122-5.239-6.302-8.357-7.265-11.232-9.857-18.971-17.723-22.817-23.806-15.845-33.631-4.582-29.9 22.273-14.022 26.42-11.158 27.167-7.274 27.293-4.495 26.201-4.39 26.16-4.138 26.103-4.12 25.984-4.769 25.9-5.449 25.743-6.062 25.51-6.529 25.332-7.198 24.868-7.649 24.8-8.806 24.625-10.253 24.95-11.594 24.783-23.385 23.321-28.146 7.722-26.845-2.406-26.174-7.623-22.522-18.655-15.539-17.138-9.553-15.838-8.114-7.246-8.238-2.139H-12.001L-12.12-2.337-12.453-7.549C-12.798-8.458-14.26-8.466-14.571-7.561L-14.259-2.218H-25.072L-25.157-2.057C-23.103 1.687-21.612 5.796-21.705 10.14-18.95 9.502-19.576 6.738-20.065 4.657-20.442 3.057-21.114 1.554-21.626 0H-14.18C-13.784 4.958-13.855 10.086-12.379 14.874-9.361 24.66 .057 27.884 5.285 17.603 10.582 7.185 8.992-10.211-.078-18.181-4.123-21.736-10.082-23.243-15.289-21.625-15.306-21.418-15.298-21.494-15.169-21.47-14.225-21.298-13.389-21.14-12.513-20.719-11.956-20.452-11.697-20.135-11.015-19.998-9.55-19.703-8.226-19.915-6.657-19.445 6.679-15.447 9.14 7.572 2.568 17.896-1.471 24.241-7.199 21.921-9.702 15.841-11.727 10.92-11.521 5.229-11.962 0H-8.08C-7.956 3.933-7.189 9.251-2.602 10.246-.944 10.606 2.051 10.252 3.514 9.336 4.286 8.852 3.839 7.466 2.952 7.306 2.254 7.181 1.171 7.881 .412 8.056-4.654 9.227-5.842 4.219-5.866 .273-5.866 .185-5.824 0-5.743 0Z" fill="#5a352c"/>
<path transform="matrix(1,0,0,-1,257.2372,139.6756)" d="M0 0 1.522 1.229V15.833L.023 17.096V17.321H12.145L10.848 13.848H10.634L8.807 16.182H4.838V8.469L10.442 9.258 9.721 7.33H4.838V1.229L7.229 0V-.226H0ZM21.882 4.925C21.882 6.605 20.177 8.31 18.497 8.31 20.177 8.31 21.882 10.015 21.882 11.695 21.882 10.015 23.587 8.31 25.267 8.31 23.587 8.31 21.882 6.605 21.882 4.925M37.157 8.029C37.856 8.029 38.492 8.193 39.063 8.52 39.634 8.847 40.089 9.32 40.428 9.94 40.766 10.561 40.935 11.292 40.935 12.134 40.935 12.968 40.766 13.692 40.428 14.305 40.089 14.917 39.634 15.383 39.063 15.703 38.492 16.022 37.856 16.182 37.157 16.182H36.864V8.029ZM32.049 0 33.549 1.229V15.833L32.049 17.096V17.321H37.541C38.901 17.321 40.108 17.109 41.161 16.684 42.213 16.259 43.033 15.658 43.619 14.88 44.205 14.102 44.499 13.201 44.499 12.179 44.499 11.337 44.305 10.576 43.918 9.895 43.53 9.215 43.017 8.653 42.378 8.21 41.739 7.766 41.051 7.461 40.315 7.296L43.021 5.605 45.175 1.229 46.494 0V-.226H42.3L38.544 6.958C38.018 6.913 37.458 6.89 36.864 6.89V1.229L39.255 0V-.226H32.049ZM25.068 1.229C25.956 1.906 26.615 2.735 27.047 3.716 27.48 4.697 27.696 5.762 27.696 6.913 27.696 8.371 27.356 9.807 26.675 11.22 25.995 12.634 25.065 13.788 23.884 14.682 22.704 15.577 21.407 16.024 19.994 16.024 19.55 16.024 19.095 15.979 18.629 15.889 17.69 15.25 16.99 14.446 16.532 13.476 16.073 12.506 15.844 11.442 15.844 10.284 15.844 8.826 16.195 7.384 16.898 5.96 17.601 4.535 18.564 3.372 19.785 2.47 21.007 1.567 22.354 1.116 23.828 1.116 24.249 1.116 24.663 1.154 25.068 1.229M21.877-.553C20.118-.553 18.56-.147 17.203 .665 15.846 1.477 14.795 2.579 14.051 3.969 13.307 5.36 12.935 6.894 12.935 8.57 12.935 10.247 13.307 11.779 14.051 13.166 14.795 14.553 15.846 15.652 17.203 16.464 18.56 17.276 20.118 17.682 21.877 17.682 23.629 17.682 25.181 17.28 26.534 16.475 27.888 15.671 28.938 14.575 29.686 13.188 30.434 11.801 30.808 10.262 30.808 8.57 30.808 6.894 30.436 5.36 29.692 3.969 28.948 2.579 27.897 1.477 26.54 .665 25.183-.147 23.629-.553 21.877-.553" fill="#5a352c"/>
<path transform="matrix(1,0,0,-1,257.2372,162.7744)" d="M0 0 1.522 1.229V15.833L.023 17.096V17.321H12.145L10.848 13.848H10.634L8.807 16.182H4.838V8.469L10.442 9.258 9.721 7.33H4.838V1.229L7.229 0V-.225H0ZM92.391-.564C90.324-.564 88.591-.225 87.192 .451L88.117 3.406H88.354L91.658 .564C92.861 .564 93.803 .765 94.483 1.167 95.163 1.569 95.504 2.146 95.504 2.898 95.504 3.402 95.357 3.894 95.064 4.376 94.77 4.856 94.286 5.368 93.609 5.909 92.932 6.45 92.015 7.048 90.857 7.702 89.64 8.394 88.75 9.16 88.191 10.003 87.63 10.844 87.35 11.773 87.35 12.788 87.35 13.705 87.578 14.534 88.033 15.275 88.487 16.015 89.136 16.598 89.978 17.022 90.82 17.447 91.793 17.66 92.899 17.66 93.831 17.66 94.712 17.554 95.543 17.344 96.374 17.133 97.109 16.832 97.748 16.442L96.676 12.991H96.44L93.35 16.521C92.335 16.521 91.512 16.323 90.88 15.929 90.249 15.534 89.933 14.964 89.933 14.22 89.933 13.694 90.062 13.216 90.322 12.788 90.581 12.359 91.008 11.92 91.602 11.469 92.196 11.018 93.038 10.476 94.128 9.845 95.639 8.973 96.753 8.035 97.471 7.031 98.189 6.027 98.548 5.041 98.548 4.071 98.548 3.161 98.298 2.357 97.798 1.658 97.298 .959 96.584 .413 95.656 .023 94.727-.368 93.639-.564 92.391-.564M75.036 .914C76.419 .914 77.662 1.229 78.763 1.861 79.864 2.492 80.725 3.389 81.345 4.55 81.966 5.712 82.276 7.056 82.276 8.582 82.276 10.108 81.964 11.446 81.34 12.596 80.716 13.747 79.855 14.632 78.757 15.252 77.66 15.872 76.419 16.182 75.036 16.182H74.811V.914ZM69.984 0 71.495 1.229V15.833L69.995 17.096V17.321H75.149C77.382 17.321 79.297 16.994 80.894 16.34 82.492 15.686 83.715 14.707 84.565 13.403 85.414 12.098 85.839 10.491 85.839 8.582 85.839 6.657 85.418 5.037 84.576 3.721 83.734 2.406 82.514 1.419 80.917 .761 79.319 .103 77.397-.226 75.149-.226H69.984ZM55.234 12.833 55.087 13.51V1.229L57.512-.023V-.225H52.449V0L53.948 1.229V15.833L52.449 17.096V17.321H55.696L65.879 5.729V15.833L63.477 17.096V17.321H68.518V17.096L67.018 15.833V4.432L68.349 3.586 67.221-.564H66.996ZM38.454 0 39.954 1.263V15.833L38.454 17.096V17.321H50.577L49.28 13.848H49.066L47.239 16.182H43.269V8.807L48.874 9.597 48.152 7.668H43.269V.913H47.216L50.644 3.282H50.87L50.441-.225H38.454ZM29.748 0 31.259 1.229V15.833L29.76 17.096V17.321H36.086V17.096L34.575 15.833V1.229L36.075 0V-.225H29.748ZM18.945 8.029C19.644 8.029 20.28 8.193 20.851 8.52 21.422 8.847 21.877 9.32 22.215 9.941 22.554 10.561 22.723 11.292 22.723 12.134 22.723 12.968 22.554 13.692 22.215 14.305 21.877 14.917 21.422 15.383 20.851 15.703 20.28 16.022 19.644 16.182 18.945 16.182H18.652V8.029ZM13.837 0 15.337 1.229V15.833L13.837 17.096V17.321H19.329C20.689 17.321 21.896 17.109 22.948 16.684 24.001 16.259 24.82 15.658 25.407 14.88 25.993 14.102 26.286 13.201 26.286 12.179 26.286 11.337 26.093 10.576 25.706 9.896 25.318 9.215 24.805 8.653 24.166 8.21 23.527 7.766 22.839 7.461 22.103 7.296L24.809 5.605 26.963 1.229 28.282 0V-.225H24.087L20.332 6.958C19.806 6.913 19.246 6.89 18.652 6.89V1.229L21.043 0V-.225H13.837Z" fill="#5a352c"/>
</g>
</g>
</svg>
